<mxfile host="app.diagrams.net" modified="2024-03-11T12:43:42.082Z" agent="Mozilla/5.0 (X11; Linux x86_64) AppleWebKit/537.36 (KHTML, like Gecko) Chrome/121.0.0.0 Safari/537.36" etag="YrDxvjv-rvs-W5ymCjXQ" version="24.0.4" type="device">
  <diagram id="R2lEEEUBdFMjLlhIrx00" name="Page-1">
    <mxGraphModel dx="2284" dy="737" grid="1" gridSize="10" guides="1" tooltips="1" connect="1" arrows="1" fold="1" page="1" pageScale="1" pageWidth="850" pageHeight="1100" math="0" shadow="0" extFonts="Permanent Marker^https://fonts.googleapis.com/css?family=Permanent+Marker">
      <root>
        <mxCell id="0" />
        <mxCell id="1" parent="0" />
        <mxCell id="TBh5C9E5AWjTKyblvEY2-1" value="user" style="rounded=0;whiteSpace=wrap;html=1;" vertex="1" parent="1">
          <mxGeometry x="150" y="120" width="120" height="60" as="geometry" />
        </mxCell>
        <mxCell id="TBh5C9E5AWjTKyblvEY2-8" style="edgeStyle=none;rounded=0;orthogonalLoop=1;jettySize=auto;html=1;exitX=1;exitY=0.5;exitDx=0;exitDy=0;endArrow=none;endFill=0;" edge="1" parent="1" source="TBh5C9E5AWjTKyblvEY2-2" target="TBh5C9E5AWjTKyblvEY2-1">
          <mxGeometry relative="1" as="geometry" />
        </mxCell>
        <mxCell id="TBh5C9E5AWjTKyblvEY2-2" value="&lt;u&gt;user_name&lt;/u&gt;" style="ellipse;whiteSpace=wrap;html=1;fillColor=#d5e8d4;strokeColor=#82b366;" vertex="1" parent="1">
          <mxGeometry y="150" width="110" height="60" as="geometry" />
        </mxCell>
        <mxCell id="TBh5C9E5AWjTKyblvEY2-9" style="edgeStyle=none;rounded=0;orthogonalLoop=1;jettySize=auto;html=1;exitX=0.5;exitY=1;exitDx=0;exitDy=0;entryX=0.75;entryY=0;entryDx=0;entryDy=0;endArrow=none;endFill=0;" edge="1" parent="1" source="TBh5C9E5AWjTKyblvEY2-4" target="TBh5C9E5AWjTKyblvEY2-1">
          <mxGeometry relative="1" as="geometry" />
        </mxCell>
        <mxCell id="TBh5C9E5AWjTKyblvEY2-4" value="password" style="ellipse;whiteSpace=wrap;html=1;" vertex="1" parent="1">
          <mxGeometry x="190" y="30" width="110" height="60" as="geometry" />
        </mxCell>
        <mxCell id="TBh5C9E5AWjTKyblvEY2-7" style="edgeStyle=none;rounded=0;orthogonalLoop=1;jettySize=auto;html=1;exitX=1;exitY=1;exitDx=0;exitDy=0;entryX=0;entryY=0;entryDx=0;entryDy=0;endArrow=none;endFill=0;" edge="1" parent="1" source="TBh5C9E5AWjTKyblvEY2-5" target="TBh5C9E5AWjTKyblvEY2-1">
          <mxGeometry relative="1" as="geometry" />
        </mxCell>
        <mxCell id="TBh5C9E5AWjTKyblvEY2-5" value="e_mail" style="ellipse;whiteSpace=wrap;html=1;" vertex="1" parent="1">
          <mxGeometry x="20" y="30" width="110" height="60" as="geometry" />
        </mxCell>
        <mxCell id="TBh5C9E5AWjTKyblvEY2-48" style="edgeStyle=none;rounded=0;orthogonalLoop=1;jettySize=auto;html=1;exitX=0.5;exitY=1;exitDx=0;exitDy=0;endArrow=none;endFill=0;" edge="1" parent="1" source="TBh5C9E5AWjTKyblvEY2-14" target="TBh5C9E5AWjTKyblvEY2-47">
          <mxGeometry relative="1" as="geometry" />
        </mxCell>
        <mxCell id="TBh5C9E5AWjTKyblvEY2-54" style="edgeStyle=none;rounded=0;orthogonalLoop=1;jettySize=auto;html=1;exitX=1;exitY=0.5;exitDx=0;exitDy=0;entryX=0;entryY=0.5;entryDx=0;entryDy=0;endArrow=none;endFill=0;" edge="1" parent="1" source="TBh5C9E5AWjTKyblvEY2-14" target="TBh5C9E5AWjTKyblvEY2-53">
          <mxGeometry relative="1" as="geometry" />
        </mxCell>
        <mxCell id="TBh5C9E5AWjTKyblvEY2-14" value="admin" style="rounded=0;whiteSpace=wrap;html=1;" vertex="1" parent="1">
          <mxGeometry x="640" y="120" width="120" height="60" as="geometry" />
        </mxCell>
        <mxCell id="TBh5C9E5AWjTKyblvEY2-15" style="edgeStyle=none;rounded=0;orthogonalLoop=1;jettySize=auto;html=1;exitX=1;exitY=0.5;exitDx=0;exitDy=0;endArrow=none;endFill=0;" edge="1" parent="1" source="TBh5C9E5AWjTKyblvEY2-16" target="TBh5C9E5AWjTKyblvEY2-14">
          <mxGeometry relative="1" as="geometry" />
        </mxCell>
        <mxCell id="TBh5C9E5AWjTKyblvEY2-16" value="&lt;u&gt;user_name&lt;/u&gt;" style="ellipse;whiteSpace=wrap;html=1;fillColor=#d5e8d4;strokeColor=#82b366;" vertex="1" parent="1">
          <mxGeometry x="490" y="190" width="110" height="60" as="geometry" />
        </mxCell>
        <mxCell id="TBh5C9E5AWjTKyblvEY2-17" style="edgeStyle=none;rounded=0;orthogonalLoop=1;jettySize=auto;html=1;exitX=0.5;exitY=1;exitDx=0;exitDy=0;entryX=0.75;entryY=0;entryDx=0;entryDy=0;endArrow=none;endFill=0;" edge="1" parent="1" source="TBh5C9E5AWjTKyblvEY2-18" target="TBh5C9E5AWjTKyblvEY2-14">
          <mxGeometry relative="1" as="geometry" />
        </mxCell>
        <mxCell id="TBh5C9E5AWjTKyblvEY2-18" value="password" style="ellipse;whiteSpace=wrap;html=1;" vertex="1" parent="1">
          <mxGeometry x="680" y="30" width="110" height="60" as="geometry" />
        </mxCell>
        <mxCell id="TBh5C9E5AWjTKyblvEY2-19" style="edgeStyle=none;rounded=0;orthogonalLoop=1;jettySize=auto;html=1;exitX=1;exitY=1;exitDx=0;exitDy=0;entryX=0;entryY=0;entryDx=0;entryDy=0;endArrow=none;endFill=0;" edge="1" parent="1" source="TBh5C9E5AWjTKyblvEY2-20" target="TBh5C9E5AWjTKyblvEY2-14">
          <mxGeometry relative="1" as="geometry" />
        </mxCell>
        <mxCell id="TBh5C9E5AWjTKyblvEY2-20" value="e_mail" style="ellipse;whiteSpace=wrap;html=1;" vertex="1" parent="1">
          <mxGeometry x="510" y="30" width="110" height="60" as="geometry" />
        </mxCell>
        <mxCell id="TBh5C9E5AWjTKyblvEY2-27" style="edgeStyle=none;rounded=0;orthogonalLoop=1;jettySize=auto;html=1;entryX=0;entryY=0.5;entryDx=0;entryDy=0;endArrow=none;endFill=0;" edge="1" parent="1" source="TBh5C9E5AWjTKyblvEY2-21" target="TBh5C9E5AWjTKyblvEY2-24">
          <mxGeometry relative="1" as="geometry" />
        </mxCell>
        <mxCell id="TBh5C9E5AWjTKyblvEY2-51" style="edgeStyle=none;rounded=0;orthogonalLoop=1;jettySize=auto;html=1;exitX=0.75;exitY=1;exitDx=0;exitDy=0;endArrow=none;endFill=0;" edge="1" parent="1" source="TBh5C9E5AWjTKyblvEY2-21" target="TBh5C9E5AWjTKyblvEY2-50">
          <mxGeometry relative="1" as="geometry" />
        </mxCell>
        <mxCell id="TBh5C9E5AWjTKyblvEY2-21" value="branchers" style="rounded=0;whiteSpace=wrap;html=1;" vertex="1" parent="1">
          <mxGeometry x="1040" y="120" width="120" height="60" as="geometry" />
        </mxCell>
        <mxCell id="TBh5C9E5AWjTKyblvEY2-25" style="edgeStyle=none;rounded=0;orthogonalLoop=1;jettySize=auto;html=1;exitX=1;exitY=1;exitDx=0;exitDy=0;endArrow=none;endFill=0;" edge="1" parent="1" source="TBh5C9E5AWjTKyblvEY2-22" target="TBh5C9E5AWjTKyblvEY2-21">
          <mxGeometry relative="1" as="geometry" />
        </mxCell>
        <mxCell id="TBh5C9E5AWjTKyblvEY2-22" value="branch_name" style="ellipse;whiteSpace=wrap;html=1;" vertex="1" parent="1">
          <mxGeometry x="980" y="20" width="110" height="60" as="geometry" />
        </mxCell>
        <mxCell id="TBh5C9E5AWjTKyblvEY2-23" value="description" style="ellipse;whiteSpace=wrap;html=1;" vertex="1" parent="1">
          <mxGeometry x="1130" y="20" width="110" height="60" as="geometry" />
        </mxCell>
        <mxCell id="TBh5C9E5AWjTKyblvEY2-24" value="&lt;u&gt;branch_id&lt;/u&gt;" style="ellipse;whiteSpace=wrap;html=1;fillColor=#d5e8d4;strokeColor=#82b366;" vertex="1" parent="1">
          <mxGeometry x="1210" y="120" width="110" height="60" as="geometry" />
        </mxCell>
        <mxCell id="TBh5C9E5AWjTKyblvEY2-26" style="edgeStyle=none;rounded=0;orthogonalLoop=1;jettySize=auto;html=1;exitX=0;exitY=1;exitDx=0;exitDy=0;entryX=0.827;entryY=0.016;entryDx=0;entryDy=0;entryPerimeter=0;endArrow=none;endFill=0;" edge="1" parent="1" source="TBh5C9E5AWjTKyblvEY2-23" target="TBh5C9E5AWjTKyblvEY2-21">
          <mxGeometry relative="1" as="geometry" />
        </mxCell>
        <mxCell id="TBh5C9E5AWjTKyblvEY2-28" value="books" style="rounded=0;whiteSpace=wrap;html=1;" vertex="1" parent="1">
          <mxGeometry x="660" y="650" width="120" height="60" as="geometry" />
        </mxCell>
        <mxCell id="TBh5C9E5AWjTKyblvEY2-37" style="edgeStyle=none;rounded=0;orthogonalLoop=1;jettySize=auto;html=1;exitX=0.5;exitY=0;exitDx=0;exitDy=0;" edge="1" parent="1" source="TBh5C9E5AWjTKyblvEY2-29" target="TBh5C9E5AWjTKyblvEY2-36">
          <mxGeometry relative="1" as="geometry" />
        </mxCell>
        <mxCell id="TBh5C9E5AWjTKyblvEY2-39" style="edgeStyle=none;rounded=0;orthogonalLoop=1;jettySize=auto;html=1;exitX=1;exitY=1;exitDx=0;exitDy=0;entryX=0;entryY=0;entryDx=0;entryDy=0;fillColor=#f8cecc;strokeColor=#000000;endArrow=none;endFill=0;" edge="1" parent="1" source="TBh5C9E5AWjTKyblvEY2-29" target="TBh5C9E5AWjTKyblvEY2-28">
          <mxGeometry relative="1" as="geometry" />
        </mxCell>
        <mxCell id="TBh5C9E5AWjTKyblvEY2-29" value="&lt;u&gt;id&lt;/u&gt;" style="ellipse;whiteSpace=wrap;html=1;fillColor=#d5e8d4;strokeColor=#82b366;" vertex="1" parent="1">
          <mxGeometry x="540" y="560" width="110" height="60" as="geometry" />
        </mxCell>
        <mxCell id="TBh5C9E5AWjTKyblvEY2-30" value="book_name" style="ellipse;whiteSpace=wrap;html=1;" vertex="1" parent="1">
          <mxGeometry x="760" y="550" width="110" height="60" as="geometry" />
        </mxCell>
        <mxCell id="TBh5C9E5AWjTKyblvEY2-31" value="author" style="ellipse;whiteSpace=wrap;html=1;" vertex="1" parent="1">
          <mxGeometry x="850" y="700" width="110" height="60" as="geometry" />
        </mxCell>
        <mxCell id="TBh5C9E5AWjTKyblvEY2-32" value="genre" style="ellipse;whiteSpace=wrap;html=1;" vertex="1" parent="1">
          <mxGeometry x="870" y="580" width="110" height="60" as="geometry" />
        </mxCell>
        <mxCell id="TBh5C9E5AWjTKyblvEY2-33" value="available" style="ellipse;whiteSpace=wrap;html=1;" vertex="1" parent="1">
          <mxGeometry x="760" y="750" width="110" height="60" as="geometry" />
        </mxCell>
        <mxCell id="TBh5C9E5AWjTKyblvEY2-45" style="edgeStyle=none;rounded=0;orthogonalLoop=1;jettySize=auto;html=1;exitX=0.5;exitY=0;exitDx=0;exitDy=0;entryX=0.25;entryY=1;entryDx=0;entryDy=0;endArrow=none;endFill=0;" edge="1" parent="1" source="TBh5C9E5AWjTKyblvEY2-34" target="TBh5C9E5AWjTKyblvEY2-28">
          <mxGeometry relative="1" as="geometry" />
        </mxCell>
        <mxCell id="TBh5C9E5AWjTKyblvEY2-34" value="2weekPrice" style="ellipse;whiteSpace=wrap;html=1;" vertex="1" parent="1">
          <mxGeometry x="630" y="760" width="110" height="60" as="geometry" />
        </mxCell>
        <mxCell id="TBh5C9E5AWjTKyblvEY2-46" style="edgeStyle=none;rounded=0;orthogonalLoop=1;jettySize=auto;html=1;exitX=1;exitY=0;exitDx=0;exitDy=0;entryX=0;entryY=1;entryDx=0;entryDy=0;endArrow=none;endFill=0;" edge="1" parent="1" source="TBh5C9E5AWjTKyblvEY2-35" target="TBh5C9E5AWjTKyblvEY2-28">
          <mxGeometry relative="1" as="geometry" />
        </mxCell>
        <mxCell id="TBh5C9E5AWjTKyblvEY2-35" value="1weekPrice" style="ellipse;whiteSpace=wrap;html=1;" vertex="1" parent="1">
          <mxGeometry x="500" y="720" width="110" height="60" as="geometry" />
        </mxCell>
        <mxCell id="TBh5C9E5AWjTKyblvEY2-36" value="auto generated" style="text;html=1;align=center;verticalAlign=middle;resizable=0;points=[];autosize=1;strokeColor=none;fillColor=none;" vertex="1" parent="1">
          <mxGeometry x="515" y="500" width="100" height="30" as="geometry" />
        </mxCell>
        <mxCell id="TBh5C9E5AWjTKyblvEY2-38" value="Branch_id" style="ellipse;whiteSpace=wrap;html=1;fillColor=#f8cecc;strokeColor=#b85450;" vertex="1" parent="1">
          <mxGeometry x="890" y="770" width="110" height="60" as="geometry" />
        </mxCell>
        <mxCell id="TBh5C9E5AWjTKyblvEY2-40" style="edgeStyle=none;rounded=0;orthogonalLoop=1;jettySize=auto;html=1;exitX=0;exitY=1;exitDx=0;exitDy=0;entryX=0.799;entryY=-0.012;entryDx=0;entryDy=0;entryPerimeter=0;endArrow=none;endFill=0;" edge="1" parent="1" source="TBh5C9E5AWjTKyblvEY2-30" target="TBh5C9E5AWjTKyblvEY2-28">
          <mxGeometry relative="1" as="geometry" />
        </mxCell>
        <mxCell id="TBh5C9E5AWjTKyblvEY2-41" style="edgeStyle=none;rounded=0;orthogonalLoop=1;jettySize=auto;html=1;exitX=0;exitY=0.5;exitDx=0;exitDy=0;entryX=1.023;entryY=0.321;entryDx=0;entryDy=0;entryPerimeter=0;endArrow=none;endFill=0;" edge="1" parent="1" source="TBh5C9E5AWjTKyblvEY2-32" target="TBh5C9E5AWjTKyblvEY2-28">
          <mxGeometry relative="1" as="geometry" />
        </mxCell>
        <mxCell id="TBh5C9E5AWjTKyblvEY2-42" style="edgeStyle=none;rounded=0;orthogonalLoop=1;jettySize=auto;html=1;exitX=0;exitY=0.5;exitDx=0;exitDy=0;entryX=1.018;entryY=0.569;entryDx=0;entryDy=0;entryPerimeter=0;endArrow=none;endFill=0;" edge="1" parent="1" source="TBh5C9E5AWjTKyblvEY2-31" target="TBh5C9E5AWjTKyblvEY2-28">
          <mxGeometry relative="1" as="geometry" />
        </mxCell>
        <mxCell id="TBh5C9E5AWjTKyblvEY2-43" style="edgeStyle=none;rounded=0;orthogonalLoop=1;jettySize=auto;html=1;exitX=0;exitY=0;exitDx=0;exitDy=0;entryX=1.032;entryY=1.045;entryDx=0;entryDy=0;entryPerimeter=0;endArrow=none;endFill=0;" edge="1" parent="1" source="TBh5C9E5AWjTKyblvEY2-38" target="TBh5C9E5AWjTKyblvEY2-28">
          <mxGeometry relative="1" as="geometry" />
        </mxCell>
        <mxCell id="TBh5C9E5AWjTKyblvEY2-44" style="edgeStyle=none;rounded=0;orthogonalLoop=1;jettySize=auto;html=1;exitX=0;exitY=0;exitDx=0;exitDy=0;entryX=0.718;entryY=0.988;entryDx=0;entryDy=0;entryPerimeter=0;endArrow=none;endFill=0;" edge="1" parent="1" source="TBh5C9E5AWjTKyblvEY2-33" target="TBh5C9E5AWjTKyblvEY2-28">
          <mxGeometry relative="1" as="geometry" />
        </mxCell>
        <mxCell id="TBh5C9E5AWjTKyblvEY2-47" value="manage" style="rhombus;whiteSpace=wrap;html=1;" vertex="1" parent="1">
          <mxGeometry x="660" y="310" width="80" height="80" as="geometry" />
        </mxCell>
        <mxCell id="TBh5C9E5AWjTKyblvEY2-49" style="edgeStyle=none;rounded=0;orthogonalLoop=1;jettySize=auto;html=1;exitX=0.5;exitY=1;exitDx=0;exitDy=0;entryX=0.346;entryY=-0.04;entryDx=0;entryDy=0;entryPerimeter=0;endArrow=none;endFill=0;" edge="1" parent="1" source="TBh5C9E5AWjTKyblvEY2-47" target="TBh5C9E5AWjTKyblvEY2-28">
          <mxGeometry relative="1" as="geometry" />
        </mxCell>
        <mxCell id="TBh5C9E5AWjTKyblvEY2-50" value="manage" style="rhombus;whiteSpace=wrap;html=1;" vertex="1" parent="1">
          <mxGeometry x="1090" y="640" width="80" height="80" as="geometry" />
        </mxCell>
        <mxCell id="TBh5C9E5AWjTKyblvEY2-52" style="edgeStyle=none;rounded=0;orthogonalLoop=1;jettySize=auto;html=1;exitX=1;exitY=0.5;exitDx=0;exitDy=0;entryX=-0.041;entryY=0.495;entryDx=0;entryDy=0;entryPerimeter=0;endArrow=none;endFill=0;" edge="1" parent="1" source="TBh5C9E5AWjTKyblvEY2-28" target="TBh5C9E5AWjTKyblvEY2-50">
          <mxGeometry relative="1" as="geometry" />
        </mxCell>
        <mxCell id="TBh5C9E5AWjTKyblvEY2-55" style="edgeStyle=none;rounded=0;orthogonalLoop=1;jettySize=auto;html=1;exitX=1;exitY=0.5;exitDx=0;exitDy=0;endArrow=none;endFill=0;" edge="1" parent="1" source="TBh5C9E5AWjTKyblvEY2-53" target="TBh5C9E5AWjTKyblvEY2-21">
          <mxGeometry relative="1" as="geometry" />
        </mxCell>
        <mxCell id="TBh5C9E5AWjTKyblvEY2-53" value="manage" style="rhombus;whiteSpace=wrap;html=1;" vertex="1" parent="1">
          <mxGeometry x="870" y="110" width="80" height="80" as="geometry" />
        </mxCell>
        <mxCell id="TBh5C9E5AWjTKyblvEY2-58" style="edgeStyle=none;rounded=0;orthogonalLoop=1;jettySize=auto;html=1;exitX=1;exitY=0.5;exitDx=0;exitDy=0;endArrow=none;endFill=0;" edge="1" parent="1" source="TBh5C9E5AWjTKyblvEY2-56" target="TBh5C9E5AWjTKyblvEY2-14">
          <mxGeometry relative="1" as="geometry" />
        </mxCell>
        <mxCell id="TBh5C9E5AWjTKyblvEY2-56" value="manage" style="rhombus;whiteSpace=wrap;html=1;" vertex="1" parent="1">
          <mxGeometry x="385" y="110" width="80" height="80" as="geometry" />
        </mxCell>
        <mxCell id="TBh5C9E5AWjTKyblvEY2-57" style="edgeStyle=none;rounded=0;orthogonalLoop=1;jettySize=auto;html=1;exitX=1;exitY=0.5;exitDx=0;exitDy=0;entryX=0.063;entryY=0.498;entryDx=0;entryDy=0;entryPerimeter=0;endArrow=none;endFill=0;" edge="1" parent="1" source="TBh5C9E5AWjTKyblvEY2-1" target="TBh5C9E5AWjTKyblvEY2-56">
          <mxGeometry relative="1" as="geometry" />
        </mxCell>
        <mxCell id="TBh5C9E5AWjTKyblvEY2-61" style="edgeStyle=none;rounded=0;orthogonalLoop=1;jettySize=auto;html=1;exitX=0.5;exitY=1;exitDx=0;exitDy=0;entryX=0.5;entryY=0;entryDx=0;entryDy=0;endArrow=none;endFill=0;" edge="1" parent="1" source="TBh5C9E5AWjTKyblvEY2-1" target="TBh5C9E5AWjTKyblvEY2-63">
          <mxGeometry relative="1" as="geometry">
            <mxPoint x="211.83999999999992" y="324.4000000000001" as="targetPoint" />
          </mxGeometry>
        </mxCell>
        <mxCell id="TBh5C9E5AWjTKyblvEY2-64" style="edgeStyle=none;rounded=0;orthogonalLoop=1;jettySize=auto;html=1;exitX=1;exitY=0.5;exitDx=0;exitDy=0;endArrow=none;endFill=0;" edge="1" parent="1" source="TBh5C9E5AWjTKyblvEY2-63" target="TBh5C9E5AWjTKyblvEY2-28">
          <mxGeometry relative="1" as="geometry" />
        </mxCell>
        <mxCell id="TBh5C9E5AWjTKyblvEY2-63" value="barrow_book" style="shape=associativeEntity;whiteSpace=wrap;html=1;align=center;" vertex="1" parent="1">
          <mxGeometry x="140" y="650" width="140" height="60" as="geometry" />
        </mxCell>
        <mxCell id="TBh5C9E5AWjTKyblvEY2-65" value="&lt;u&gt;book_id&lt;/u&gt;" style="ellipse;whiteSpace=wrap;html=1;fillColor=#f8cecc;strokeColor=#b85450;" vertex="1" parent="1">
          <mxGeometry x="170" y="770" width="110" height="60" as="geometry" />
        </mxCell>
        <mxCell id="TBh5C9E5AWjTKyblvEY2-66" value="&lt;u&gt;user_name&lt;/u&gt;" style="ellipse;whiteSpace=wrap;html=1;fillColor=#f8cecc;strokeColor=#b85450;" vertex="1" parent="1">
          <mxGeometry x="-10" y="700" width="110" height="60" as="geometry" />
        </mxCell>
        <mxCell id="TBh5C9E5AWjTKyblvEY2-67" style="edgeStyle=none;rounded=0;orthogonalLoop=1;jettySize=auto;html=1;exitX=0;exitY=0.5;exitDx=0;exitDy=0;entryX=0.582;entryY=0.033;entryDx=0;entryDy=0;entryPerimeter=0;endArrow=none;endFill=0;" edge="1" parent="1" source="TBh5C9E5AWjTKyblvEY2-63" target="TBh5C9E5AWjTKyblvEY2-66">
          <mxGeometry relative="1" as="geometry" />
        </mxCell>
        <mxCell id="TBh5C9E5AWjTKyblvEY2-68" style="edgeStyle=none;rounded=0;orthogonalLoop=1;jettySize=auto;html=1;exitX=0.5;exitY=1;exitDx=0;exitDy=0;entryX=0.564;entryY=0.033;entryDx=0;entryDy=0;entryPerimeter=0;endArrow=none;endFill=0;" edge="1" parent="1" source="TBh5C9E5AWjTKyblvEY2-63" target="TBh5C9E5AWjTKyblvEY2-65">
          <mxGeometry relative="1" as="geometry" />
        </mxCell>
      </root>
    </mxGraphModel>
  </diagram>
</mxfile>
